<svg id="Ruby" xmlns="http://www.w3.org/2000/svg" viewBox="0 0 240.84 215.51">
  <defs>
    <style>
      .cls-1 {
        fill: #ea7575;
      }

      .cls-2 {
        fill: #ef9595;
      }

      .cls-3 {
        fill: #e55959;
      }

      .cls-4 {
        fill: #db2525;
      }

      .cls-5 {
        fill: #e14040;
      }

      .cls-6 {
        fill: #f6bcbc;
      }

      .cls-7 {
        fill: #860e0e;
      }
    </style>
  </defs>
  <title>rubies2</title>
  <g>
    <g>
      <path class="cls-1" d="M72.35,107.19c-5.79-1.73-38.94-14.75-46.63-17.78,2,4.84,15.78,22.48,44.12,53.58,20.66,22.67,38.87,41.31,46.33,48Z"/>
      <path class="cls-2" d="M72.38,105.05,85.61,64.27C78.43,61.8,57.73,51.11,54.06,49.2c-3.61,3-23.06,29.78-28,38.12C32.53,89.88,65.42,102.81,72.38,105.05Z"/>
      <path class="cls-3" d="M87.18,62.6c5.93,1.62,64.25,1.8,68.26,1.13,3.5-.58,28.6-10.35,33.79-13-4.19-3.53-22.69-10.81-34.38-14.92-3.55,0-60.08-.56-67.16-.58-2.27,1-24,10-31.23,12.94C62.72,51.35,82,61.19,87.18,62.6Z"/>
      <path class="cls-4" d="M171.28,107.8l-49.42,84.41c12.22-9.21,60.34-61,93.92-98.16C205.54,97.35,177.25,106.43,171.28,107.8Z"/>
      <path class="cls-1" d="M169.21,106l-14.3-40.16c-2.78.2-10.47.31-19.76.31-17.77,0-41.37-.41-47.54-1.38l-13.2,40.68C85,106.45,158,106.88,169.21,106Z"/>
      <path class="cls-5" d="M190.51,52.31c-5.34,3-27.78,11.39-33.55,13.14l14.33,40.24c7.29-1.81,39.27-12.12,46.18-14.36C213.31,85.37,194.67,58.64,190.51,52.31Z"/>
      <path class="cls-3" d="M136.33,108.58c-24.09,0-53.22-.39-61.46-1l44.42,85,49.42-84.4C163.57,108.44,150.88,108.58,136.33,108.58Z"/>
      <path class="cls-6" d="M86.38,62.36s-16-8.25-16.76-12.64,9.8-8.25,19.6-10.83,40.47-4.64,40.47-4.64L87.41,34,54.15,47.4S81.22,61.58,86.38,62.36Z"/>
      <path class="cls-6" d="M33.53,91.75S32,84.79,41,70.86,63.44,54.36,72.2,58L54.93,48.69,49,52.82,25,88.14Z"/>
      <path class="cls-6" d="M76.07,98.62S85,77,92.57,71.47s31.62-6.54,31.62-6.54l-36.58-.14S76.41,92.78,76.07,98.62Z"/>
      <g>
        <path class="cls-7" d="M119.42,195.7a1.8,1.8,0,0,1-.48-.06C112.59,193.73,30,105,23.88,90.1a3.2,3.2,0,0,1-.23-2.75c2.63-4.82,26.4-38.87,30-40.3,2.85-1.14,33.17-13.72,33.47-13.85a1.1,1.1,0,0,1,.4-.08c6.28,0,66.94.57,67.55.58a1,1,0,0,1,.34.06c3.4,1.19,33.33,11.8,36.32,16.59,2.84,4.54,28,40.58,28.26,40.95a1,1,0,0,1-.08,1.28c-.23.25-23.42,26-47.19,51.41C124.59,195.42,120.78,195.7,119.42,195.7ZM87.69,35.18C85.1,36.26,57.13,47.87,54.39,49c-2.64,1.33-25,32.23-28.93,39.37-.36,2.51,13.2,20.44,44.38,54.65,25.2,27.66,46.79,49.34,49.62,50.64,5.87-1.13,61.71-61.17,98.34-101.83-3.58-5.13-25.16-36.06-27.85-40.36-1.95-3.12-22.49-11.25-35.1-15.68C151.3,35.73,94.77,35.2,87.69,35.18Z"/>
        <path class="cls-7" d="M136.33,108.58c-27,0-60.46-.49-63.53-1.26C68.17,106.16,26,89.51,24.18,88.8a1,1,0,1,1,.76-1.91c.44.17,43.86,17.3,48.36,18.43s91.7,1.65,97.12.56c5.65-1.12,48-14.84,48.38-15a1,1,0,1,1,.63,2c-1.74.56-42.84,13.89-48.61,15C168.49,108.37,153.73,108.58,136.33,108.58Z"/>
        <path class="cls-7" d="M135.15,66.17c-18.91,0-44.42-.46-48.51-1.58-6.39-1.74-32-15.1-33.11-15.67a1,1,0,0,1,.95-1.83c.26.14,26.53,13.83,32.7,15.51,5.93,1.62,64.25,1.8,68.26,1.13,3.79-.63,32.95-12,34.67-13.57a1,1,0,0,1,1.45.05,1,1,0,0,1,0,1.42c-2.17,2.16-33,13.68-35.78,14.14C154.25,66,145.73,66.17,135.15,66.17Z"/>
        <path class="cls-7" d="M119.24,195.68h0a1,1,0,0,1-.88-.55L72.14,106.8a1.06,1.06,0,0,1-.07-.8L85.93,63.28a1,1,0,1,1,2,.64L74.17,106.23l45.12,86.29,50.2-85.73L154.64,65.1a1,1,0,1,1,1.94-.69l15,42.14a1,1,0,0,1-.08.87l-51.38,87.75A1,1,0,0,1,119.24,195.68Z"/>
      </g>
    </g>
    <g>
      <path class="cls-6" d="M73.9,87.59a134.55,134.55,0,0,0-.17,38S76.3,102.72,73.9,87.59Z"/>
      <path class="cls-6" d="M84.55,106.79a44.56,44.56,0,0,0-21.71-.18S75.91,109.19,84.55,106.79Z"/>
    </g>
    <g>
      <path class="cls-6" d="M146.2,131.94a110.89,110.89,0,0,0-.14,31.28S148.18,144.39,146.2,131.94Z"/>
      <path class="cls-6" d="M155,147.74a36.82,36.82,0,0,0-17.88-.14S147.85,149.73,155,147.74Z"/>
    </g>
  </g>
</svg>
