<?xml version="1.0" standalone="no"?>
<!DOCTYPE svg PUBLIC "-//W3C//DTD SVG 20010904//EN"
 "http://www.w3.org/TR/2001/REC-SVG-20010904/DTD/svg10.dtd">
<svg version="1.0" xmlns="http://www.w3.org/2000/svg"
 width="260.000000pt" height="260.000000pt" viewBox="0 0 260.000000 260.000000"
 preserveAspectRatio="xMidYMid meet">
<metadata>
Created by potrace 1.11, written by Peter Selinger 2001-2013
</metadata>
<g transform="translate(0.000000,260.000000) scale(0.100000,-0.100000)"
fill="#000000" stroke="none">
<path d="M635 2260 l-210 -87 -53 -64 c-55 -65 -247 -330 -296 -407 -52 -83
-34 -132 131 -337 264 -330 942 -1053 1031 -1099 31 -16 35 -16 77 3 77 34
434 395 981 991 220 240 259 287 262 316 3 30 -16 62 -151 257 -85 122 -167
241 -182 264 -42 65 -130 113 -385 209 l-114 44 -441 -1 -440 -1 -210 -88z
m1165 -82 c53 -20 120 -48 150 -61 l55 -25 -40 -16 c-21 -9 -82 -33 -135 -54
l-95 -37 -415 0 -415 0 -128 59 c-70 32 -129 62 -132 65 -2 4 51 30 118 58
l122 51 410 -1 410 -2 95 -37z m-1158 -219 c79 -38 144 -73 145 -77 2 -4 -26
-93 -61 -199 l-63 -191 -225 86 -226 87 36 50 c125 173 233 315 241 315 6 0
74 -32 153 -71z m1620 -155 c78 -113 123 -187 115 -189 -40 -15 -430 -135
-432 -133 -14 21 -133 383 -128 388 5 4 60 27 123 50 63 24 126 49 140 56 14
7 32 13 40 13 8 0 72 -83 142 -185z m-791 37 l205 -1 16 -47 c9 -27 39 -112
67 -191 l51 -143 -499 3 c-275 2 -502 5 -505 8 -3 4 23 91 57 195 l62 190 170
-6 c94 -4 263 -7 376 -8z m-1000 -421 c100 -38 186 -73 190 -77 6 -7 319 -601
341 -648 12 -25 -113 103 -306 316 -200 219 -424 479 -413 479 3 0 87 -31 188
-70z m1779 -7 c-25 -33 -441 -479 -589 -633 l-101 -105 146 250 c80 138 166
285 191 327 24 43 50 81 56 85 7 4 249 83 315 102 2 1 -6 -11 -18 -26z m-470
-89 c0 -4 -492 -840 -498 -846 -6 -6 -452 829 -452 846 0 3 214 5 475 3 261
-1 475 -3 475 -3z"/>
</g>
</svg>
