<svg version="1" xmlns="http://www.w3.org/2000/svg" width="682.667" height="682.667" viewBox="0 0 512.000000 512.000000"><path d="M154.3 72.1c-4.4.9-6.3 2.5-14.3 12.1-4.1 5-8.5 10.2-9.8 11.7-1.3 1.4-3.5 4.2-5 6.1-1.5 1.9-3.2 3.9-3.8 4.5-1 .9-4.3 4.7-15.4 18.2-1.4 1.7-4.5 5.5-7 8.4-2.5 2.9-6.4 7.5-8.8 10.3-2.3 2.8-4.9 5.8-5.6 6.6-.7.8-4.4 5.1-8 9.5-3.7 4.4-7.7 9.1-8.9 10.5-1.2 1.4-4.2 5-6.7 8-2.4 3-4.9 5.9-5.5 6.5-.7.5-1.7 2.7-2.4 4.7-1.4 4.4-.3 9 3 12.9 1.1 1.3 3 3.5 4.2 4.9 1.2 1.4 6.9 8.1 12.6 15 5.7 6.9 10.7 12.7 11 13 .4.3 2.6 3 5.1 6 2.5 3 4.7 5.7 5 6 .3.3 5 5.9 10.6 12.5 24.2 28.9 36.9 44 37.4 44.5.3.3 2.7 3.2 5.5 6.5 2.7 3.3 5.2 6.2 5.5 6.5.3.3 2.5 3 5 6s4.9 6 5.5 6.6c.5.6 2.8 3.3 5 5.9 2.2 2.7 4.5 5.3 5 5.9.6.6 3 3.6 5.5 6.6 4.2 5.2 8.2 9.9 10.5 12.4.6.6 3 3.6 5.5 6.6 2.4 3 6 7.3 8 9.5 1.9 2.2 5.3 6.2 7.5 8.9 2.2 2.8 4.7 5.7 5.5 6.6.8.8 6 7 11.4 13.5 5.5 6.6 10.7 12.7 11.5 13.7.9.9 2.6 2.9 3.8 4.5 1.2 1.5 4.3 5.2 7 8.2 4.2 4.6 5.3 5.3 7.4 4.7 1.5-.4 9.7-9.4 22.4-24.6 22.6-27.2 23.7-28.5 26.9-32 1.2-1.4 4.2-5 6.7-8 2.4-3 4.6-5.7 4.9-6 .3-.3 4.1-4.8 8.5-10s8.4-10 9-10.6c.5-.6 1.9-2.2 3-3.5 7.7-9.2 14.3-17 17.6-20.9 2.1-2.5 12.6-15.1 23.5-28 10.8-12.9 21.6-25.8 23.9-28.5 7.8-9.2 23.6-27.9 27.3-32.4 2-2.5 4.4-5.2 5.2-6.1.8-.9 3.1-3.6 5.1-6 2-2.5 4.5-5.5 5.5-6.6 10.5-12 13.4-16.4 13.4-20.4 0-2.9-2.4-7.7-6-11.7-1.4-1.6-4.5-5.3-7-8.3-2.5-3-5.5-6.6-6.7-8-1.2-1.4-8.7-10.4-16.8-20-8.1-9.6-16.6-19.8-19-22.5-2.3-2.8-12.2-14.4-21.9-25.8-9.6-11.5-18.7-21.8-20.2-22.9-2.6-2.1-3.1-2.1-104-2.2-55.7-.1-102.6.2-104.1.5zm77 23.8c.7.1-4.6 8.5-6.3 10.1-.3.3-1.7 2.1-3 4s-3 4.1-3.8 4.9c-.7.8-2.1 2.6-3 4-.9 1.4-2 3-2.5 3.6-.4.5-3.2 4.4-6.3 8.5-3 4.1-6.3 8.6-7.4 10-1 1.4-4.9 6.7-8.7 11.7-3.7 5.1-7.1 9.3-7.4 9.3-.4 0-1-2.1-1.3-4.8-.4-2.6-2.9-17.3-5.7-32.6-2.9-16.4-4.6-28.2-4-28.5.7-.5 55.2-.6 59.4-.2zm109.3.3c.5.6-.8 9-4.6 29.8-2.7 14.8-4.9 27.4-5.8 32.8l-.7 4.4-8-10.9c-4.3-5.9-8.3-11.3-8.7-11.8-.5-.6-3.3-4.4-6.3-8.5-2.9-4.1-5.8-8-6.2-8.5-1.6-1.9-20.3-27.6-20.3-27.8 0-.5 60.1 0 60.6.5zm-77.4 17.3c.5.5 5 6.7 10.1 13.6 12.4 17 11 15.1 25.8 35.2 7.2 9.8 12.9 18 12.7 18.3-.3.2-25.6.3-56.2.2l-55.8-.3 11.3-15.5c6.3-8.5 11.7-16 12.2-16.5.4-.6 3.9-5.3 7.7-10.5 3.8-5.2 7.3-10 7.7-10.5.5-.6 4.6-6.1 9.2-12.3l8.3-11.2 3.1 4.2c1.7 2.3 3.4 4.7 3.9 5.3zm106.4 5c2.7 3.2 5.6 6.6 6.4 7.5.8.9 3.4 3.8 5.6 6.5 4.2 5.1 19.2 22.9 26.8 31.9 2.2 2.7 4.6 5.4 5.1 6 .6.6 2.8 3.2 4.9 5.8l3.8 4.8h-71.4l.6-3.3c.4-1.7 2-10.6 3.6-19.7 3.6-20.2 4.6-25.3 6.5-35.2.8-4.2 1.5-8.7 1.5-10 0-1.2.4-1.8.8-1.3.5.6 3.1 3.7 5.8 7zm-218.1 8.1c4.8 27.5 6.6 37.8 8 45.3.8 4.2 1.5 7.9 1.5 8.3 0 .5-16 .8-35.6.8H89.8l5.4-6.3c2.9-3.4 5.8-6.7 6.3-7.3.6-.6 2.1-2.5 3.5-4.3 1.3-1.8 3.3-4.3 4.5-5.5 2.8-3.2 10.2-11.8 17.1-20.1 3.2-3.9 6.1-7.2 6.4-7.5.3-.3 1.6-1.8 2.8-3.4 4.3-5.5 12.5-14.6 12.9-14.3.2.3 1.5 6.7 2.8 14.3zm18.1 84.7c1.2 3.2 2.3 6.1 2.5 6.5.8 3 8.9 26.6 9.9 28.7.5 1.1 1.9 4.9 3.1 8.5 1.2 3.6 3.5 10.1 5.1 14.5 1.6 4.4 3.1 8.7 3.3 9.5.2.8 2.5 7.3 5 14.5 2.6 7.1 5.1 14.1 5.5 15.5.4 1.4 2.9 8.3 5.5 15.5 2.6 7.1 5.2 14.8 6 17 .7 2.2 2.6 7.7 4.3 12.2 1.6 4.6 2.7 8.3 2.4 8.2-.4 0-2.9-2.8-5.5-6.2-2.6-3.4-6-7.6-7.5-9.3-2.9-3.3-7.7-9-18.1-21.3-12.5-15-14.6-17.5-16.8-20-3.3-3.8-4-4.6-9.5-11.4-2.8-3.4-5.9-6.9-6.7-7.8-.9-.9-2.3-2.5-3.1-3.6-2.5-3.1-16.4-19.8-17-20.3-.3-.3-3.9-4.6-8-9.5-4.1-5-7.9-9.5-8.5-10.1-1.5-1.7-4.5-5.2-10.4-12.4-3-3.6-6.2-7.4-7.2-8.5-4.8-5.3-12.9-15.3-12.9-15.9 0-.3 17.2-.5 38.2-.4l38.2.3 2.2 5.8zm149-4.1c-.4 1.3-.9 3-1.1 3.8-.2.8-3.4 9.8-7 20-3.7 10.2-8.1 22.8-9.9 28-1.9 5.2-4.4 12.2-5.6 15.5-1.2 3.3-2.6 7.6-3.2 9.5-.6 1.9-1.3 3.9-1.6 4.5-.4.5-.7 1.4-.9 2-.1.5-2.5 7.5-5.3 15.5-2.9 8-5.6 15.6-6 17-.5 1.4-3.1 9-6 17-2.8 8-7.5 21.1-10.3 29.2-2.8 8.2-5.5 14.8-5.9 14.8-.5 0-.7-.3-.6-.7 0-.5-.1-1.5-.5-2.3-.7-1.8-6.1-17.5-8.3-24-.9-2.5-1.9-5.4-2.4-6.5-.5-1.1-1.6-4-2.4-6.5-.8-2.5-3.5-10.4-6.1-17.5-2.6-7.2-5.2-14.8-6-17-.7-2.2-3.4-9.9-5.9-17-2.6-7.2-5.9-16.4-7.2-20.5-1.4-4.1-2.9-8.4-3.4-9.5-.4-1.1-2.5-6.7-4.5-12.5-6.6-18.9-9.3-26.4-12.4-35.1-1.7-4.7-3.1-8.8-3.1-9.2 0-.4 28.4-.7 63.1-.7h63.1l-.6 2.2zm101.2.8c-1.2 1.6-2.5 3-3 3-.4 0-.8.6-.8 1.4 0 .8-.4 1.6-.9 1.8-.5.1-3.6 3.4-6.8 7.3-3.2 3.8-6.8 8.1-8 9.5-3.3 3.9-9.4 11.1-13.9 16.6-8.1 9.6-10.9 12.9-13 15.4-1.2 1.4-5.2 6.1-8.9 10.5s-7.7 9.1-8.8 10.5c-1.2 1.4-4.4 5.2-7.2 8.5-2.7 3.3-6 7.1-7.1 8.5-1.2 1.4-5.2 6.1-8.9 10.5s-8.5 10.2-10.8 12.9c-2.3 2.7-5.5 6.5-7.2 8.5-1.6 2-3.4 4.1-4 4.7-1.2 1.4-6.3 7.4-14.5 17.4-3.5 4.1-6.5 7.7-6.7 8-.2.2.1-.9.7-2.5.7-1.7 3.9-10.7 7.2-20 3.2-9.4 7.2-20.6 8.8-25 1.5-4.4 5.8-16.6 9.4-27 3.7-10.5 6.9-19.7 7.3-20.5.3-.8.7-2 .9-2.5.1-.6 2.3-6.9 4.9-14 2.6-7.2 5.6-15.7 6.7-19 1.1-3.3 2.3-6.9 2.8-8 .4-1.1 1.8-4.9 3.1-8.5 1.2-3.6 2.6-7.5 3-8.8l.9-2.2h77.1l-2.3 3z"/></svg>